<svg width="30" height="20" viewBox="0 0 30 20" fill="none" xmlns="http://www.w3.org/2000/svg">
<g id="list">
<path id="Vector" d="M9.66675 2.5L28.6251 2.5" stroke="#121219" stroke-width="1.5" stroke-linecap="round"/>
<path id="Vector_2" d="M9.66675 10L28.6251 10" stroke="#121219" stroke-width="1.5" stroke-linecap="round"/>
<path id="Vector_3" d="M9.66675 17.5L28.6251 17.5" stroke="#121219" stroke-width="1.5" stroke-linecap="round"/>
<g id="dots">
<path id="Vector_4" d="M2.73966 11.5625C3.74643 11.5625 4.56258 10.8629 4.56258 10C4.56258 9.13706 3.74643 8.4375 2.73966 8.4375C1.7329 8.4375 0.916748 9.13706 0.916748 10C0.916748 10.8629 1.7329 11.5625 2.73966 11.5625Z" fill="#121219"/>
<path id="Vector_5" d="M2.73966 4.0625C3.74643 4.0625 4.56258 3.36295 4.56258 2.5C4.56258 1.63706 3.74643 0.9375 2.73966 0.9375C1.7329 0.9375 0.916748 1.63706 0.916748 2.5C0.916748 3.36295 1.7329 4.0625 2.73966 4.0625Z" fill="#121219"/>
<path id="Vector_6" d="M2.73966 19.0625C3.74643 19.0625 4.56258 18.3629 4.56258 17.5C4.56258 16.6371 3.74643 15.9375 2.73966 15.9375C1.7329 15.9375 0.916748 16.6371 0.916748 17.5C0.916748 18.3629 1.7329 19.0625 2.73966 19.0625Z" fill="#121219"/>
</g>
</g>
</svg>
