<svg width="36" height="32" viewBox="0 0 36 32" fill="none" xmlns="http://www.w3.org/2000/svg">
<g id="right">
<circle id="Ellipse 9" cx="16" cy="16" r="16" fill="white"/>
<g id="Arrow - Right 2">
<path id="Arrow - Right 2_2" d="M13.4571 19.0132L13.4448 19.0271L13.4336 19.0419C13.1615 19.4015 13.1924 19.9125 13.5229 20.2365C13.8813 20.5878 14.4583 20.5878 14.8166 20.2365L18.4771 16.648L18.4902 16.6352L18.5023 16.6214L18.5429 16.5753L18.5552 16.5614L18.5664 16.5466C18.8385 16.187 18.8076 15.676 18.4771 15.352L14.8166 11.7635L14.8036 11.7507L14.7896 11.7389L14.7425 11.699L14.7285 11.6872L14.7136 11.6763C14.3556 11.4159 13.8496 11.4432 13.5229 11.7635L13.5098 11.7763L13.4977 11.7901L13.4571 11.8362L13.4448 11.8502L13.4336 11.8649C13.1615 12.2245 13.1924 12.7355 13.5229 13.0596L13.5229 13.0596L16.5225 16L13.5229 18.9404L13.5098 18.9533L13.4977 18.967L13.4571 19.0132Z" fill="#061737" stroke="#061737"/>
</g>
</g>
</svg>
